PathFileType	4	(X/Y/Z)	 s06c0302.trc
DataRate	CameraRate	NumFrames	NumMarkers	Units	OrigDataRate	OrigDataStartFrame	OrigNumFrames
200	200	5	48	mm	200	1001	2000
Frame#	Time	racr			lacr			c7			jug			rlel			rdr			llel			ldr			s2			lic			ric			lasi			rasi			rpsi			lpsi			rgt			lgt			rth1			rth2			rth3			rth4			rlfc			rmfc			rsh1			rsh2			rsh3			rsh4			rlmal			rcal			rtoe			rmt5			lth1			lth2			lth4			lth3			llfc			lmfc			llmal			lcal			lmt5			lsh1			lsh2			lsh3			lsh4			ltoe			SBIKE			LBIKE			RBIKE			
		X1	Y1	Z1	X2	Y2	Z2	X3	Y3	Z3	X4	Y4	Z4	X5	Y5	Z5	X6	Y6	Z6	X7	Y7	Z7	X8	Y8	Z8	X9	Y9	Z9	X10	Y10	Z10	X11	Y11	Z11	X12	Y12	Z12	X13	Y13	Z13	X14	Y14	Z14	X15	Y15	Z15	X16	Y16	Z16	X17	Y17	Z17	X18	Y18	Z18	X19	Y19	Z19	X20	Y20	Z20	X21	Y21	Z21	X22	Y22	Z22	X23	Y23	Z23	X24	Y24	Z24	X25	Y25	Z25	X26	Y26	Z26	X27	Y27	Z27	X28	Y28	Z28	X29	Y29	Z29	X30	Y30	Z30	X31	Y31	Z31	X32	Y32	Z32	X33	Y33	Z33	X34	Y34	Z34	X35	Y35	Z35	X36	Y36	Z36	X37	Y37	Z37	X38	Y38	Z38	X39	Y39	Z39	X40	Y40	Z40	X41	Y41	Z41	X42	Y42	Z42	X43	Y43	Z43	X44	Y44	Z44	X45	Y45	Z45	X46	Y46	Z46	X47	Y47	Z47	X48	Y48	Z48	
1001	5.0050	766.114209	1176.615363	-48.404333	780.830164	1189.559852	-362.809415	804.880790	1251.287403	-207.283915	733.919352	1097.303852	-214.991245	569.315444	1044.098980	80.331234	713.564956	927.061172	-34.887147	580.150124	1072.027513	-505.884426	715.861330	926.802430	-414.790040	227.871732	1249.201953	-248.139460	370.591133	1159.046116	-389.305766	331.472281	1148.662306	-63.451361	364.995909	1100.418503	-354.019628	350.747252	1100.507959	-98.002784	260.475146	1259.123820	-200.417584	265.446541	1262.652506	-260.634882	276.033826	1088.002114	-39.423085	330.394753	1108.009223	-422.147553	312.281612	960.493655	-15.054026	352.740016	879.171596	-14.235239	347.378536	792.228935	-22.554516	387.655172	887.966817	-25.939093	358.957911	685.352493	-35.252554	359.199333	662.344910	-145.432810	326.275001	563.311895	-14.827142	327.299525	477.943360	-35.252730	287.108742	401.451621	-44.423348	352.211314	476.805484	-67.288464	260.452480	323.967062	-53.997074	197.051076	306.740649	-103.664073	462.475046	226.592836	-92.738750	361.273351	230.937854	-26.521742	361.537217	995.716880	-434.879060	421.750994	932.980218	-426.367942	450.585195	949.330577	-409.664062	443.355266	845.753340	-424.551512	442.678002	733.689879	-403.808772	442.615642	718.097029	-288.416825	130.789837	540.347546	-370.713158	79.605205	587.322379	-323.276207	113.156347	391.952198	-394.141983	359.080030	662.444379	-419.574166	300.734942	603.934866	-392.254537	216.161809	576.861278	-385.851598	318.147180	588.158067	-360.932602	151.534282	313.926194	-336.003724	-203.564184	867.960529	-200.474726	-52.013544	84.184531	-409.215338	-50.356638	79.878156	-12.301017	
1002	5.0100	767.996057	1178.497873	-50.084472	780.797619	1190.898438	-364.203331	804.474183	1252.711222	-208.008268	735.244365	1098.009664	-216.073597	573.510346	1046.153385	83.002715	713.871688	927.135315	-34.595920	579.286654	1071.639555	-505.357004	715.975028	926.977503	-414.833174	226.847938	1246.367519	-244.413375	369.941808	1159.886715	-388.064880	333.090151	1142.973792	-63.361682	364.959447	1101.229659	-353.248804	351.159319	1095.211248	-99.082207	259.935006	1255.629016	-196.704574	264.546065	1259.868067	-254.378909	275.960748	1081.922670	-39.331498	329.862189	1110.010764	-421.186718	309.895659	954.572230	-14.840683	347.973548	872.302207	-14.339953	340.720310	785.530676	-23.032804	383.253691	879.945071	-26.336039	350.229534	677.616475	-36.035959	349.797854	655.379315	-145.996178	318.936845	555.967732	-15.163577	321.401289	470.509811	-35.136519	281.615659	393.644115	-44.308339	345.388990	470.140611	-67.449424	255.696386	316.147016	-53.784979	192.339572	299.923723	-103.382687	456.747031	216.026139	-92.997747	355.637355	221.887232	-26.557584	363.953360	998.806869	-435.825089	425.516320	937.368920	-428.104824	454.197434	954.267263	-411.885208	449.147262	850.703703	-427.121645	450.602734	738.620449	-405.277870	449.776714	723.762775	-289.966444	136.403438	549.491239	-371.065338	84.994988	596.434899	-323.641585	119.400585	401.112554	-394.242145	365.927640	668.624224	-420.658528	306.818253	611.131091	-393.359779	221.973644	585.124822	-386.542239	324.335779	594.745097	-362.339513	158.055613	323.217455	-335.992104	-203.644582	867.981959	-200.542668	-52.007645	84.245509	-409.223186	-50.360435	79.903491	-12.308166	
1003	5.0150	769.833099	1181.116877	-51.959821	780.707325	1192.423347	-365.648917	804.139834	1254.461351	-208.988425	736.377304	1099.268242	-217.305268	577.824486	1048.932105	85.344230	714.471239	927.203438	-34.572490	578.388031	1071.114393	-504.788353	716.312345	927.398579	-414.751969	225.778612	1243.443177	-240.569453	369.220408	1160.826301	-386.810199	334.145746	1137.319472	-62.575199	364.917471	1102.047284	-352.371150	351.754671	1090.200510	-99.358286	259.490761	1252.196554	-193.061141	263.558277	1257.282578	-251.186504	276.570007	1075.773077	-39.098154	328.937798	1112.076297	-420.093367	307.723710	948.551890	-14.551705	343.346746	865.208116	-14.587676	333.751711	778.747181	-23.589581	378.802171	872.099351	-26.610438	341.530694	670.299709	-36.736744	340.155567	647.969971	-146.202132	311.422012	549.177367	-15.478840	314.867383	463.728216	-35.106708	275.834752	386.278074	-44.037258	338.508524	463.549795	-67.653187	250.656244	308.848255	-53.450257	187.829811	293.163634	-103.226053	450.509051	205.632263	-93.222683	349.607445	213.086687	-26.604513	366.027896	1002.033154	-436.867738	428.887884	941.948533	-429.774845	457.343550	959.303760	-414.021139	454.486964	855.879845	-429.982012	458.522893	743.583802	-406.708680	455.910236	728.837457	-292.100301	142.476194	558.291442	-371.523791	90.642504	604.935727	-323.890819	126.192696	409.881246	-394.339768	372.943348	674.977410	-422.047962	313.139159	618.374352	-394.436919	228.078908	593.331645	-387.375633	330.735456	601.399636	-363.679997	165.320820	332.294533	-336.000020	-203.649380	867.985214	-200.636917	-52.015369	84.201898	-409.240376	-50.328981	79.894107	-12.363511	
1004	5.0200	771.629398	1184.213725	-54.164247	780.534348	1193.970657	-367.201672	803.910733	1256.469982	-210.389573	737.402689	1100.886977	-218.641911	582.440785	1051.981802	87.574846	715.435639	927.267079	-34.100612	577.447325	1070.411022	-504.094246	716.414727	927.496416	-414.598793	224.691337	1240.443618	-236.625902	368.365301	1161.932472	-385.603467	335.647274	1132.082942	-61.330382	364.887897	1102.940983	-351.438087	353.182166	1085.704512	-99.071603	259.169335	1248.657530	-189.311408	262.512176	1254.756835	-247.585443	277.162327	1069.815947	-38.966225	327.899513	1114.163129	-419.012373	305.446553	942.533136	-14.127175	338.827194	858.114295	-15.035585	326.433581	771.939697	-24.018187	374.166440	864.040878	-26.932998	332.164296	663.979224	-37.338340	330.158706	640.617384	-146.218149	303.525257	542.959075	-15.741886	307.928708	457.472202	-35.062941	269.655644	379.648010	-43.732644	331.935512	457.540602	-67.769812	245.544898	302.015614	-53.027153	182.635358	287.706142	-102.736995	443.895179	195.515572	-93.463979	343.211999	204.590252	-26.601742	367.589001	1004.978846	-437.424442	431.563174	946.555570	-431.469697	460.263655	964.407179	-415.221048	459.312746	861.280012	-432.878966	466.384110	748.839907	-408.106572	463.555451	734.628682	-294.134282	148.935734	566.487767	-372.131290	96.457492	613.153117	-324.291685	133.513263	418.098485	-394.446414	380.169872	681.249176	-423.386944	319.873331	625.437545	-395.617316	234.551735	601.401827	-388.384962	337.361166	608.076565	-365.050861	173.342219	340.989732	-335.935961	-203.614028	867.940348	-200.668106	-51.978161	84.167887	-409.255684	-50.331880	79.859680	-12.393275	
1005	5.0250	774.753365	1186.301906	-57.440908	780.308995	1195.589604	-368.855296	803.828061	1258.718421	-212.190467	738.271169	1102.912713	-220.074524	586.679690	1055.375473	88.918911	716.529614	927.438974	-33.480990	576.473456	1069.687409	-503.391090	716.533793	927.533779	-414.385165	223.613693	1237.383529	-232.600930	367.501335	1163.062453	-384.395170	339.098627	1128.530018	-59.045453	364.788401	1103.832121	-350.501361	357.479957	1083.128852	-97.558649	258.617049	1245.480729	-185.582218	262.043081	1254.115265	-247.531576	277.980800	1064.023505	-38.690698	326.583904	1116.230022	-418.000104	303.659205	936.473113	-14.492252	334.140573	851.204768	-15.374581	318.871359	765.639003	-25.011263	369.561293	856.122766	-27.308876	322.467337	658.423904	-38.186841	320.053090	633.857829	-146.050338	295.354735	537.343183	-15.886365	300.657436	451.866617	-34.826868	263.179654	373.610023	-43.286735	324.792309	452.015893	-68.029135	240.178282	295.721559	-52.683017	177.235193	282.926040	-102.151525	436.819521	185.538251	-93.647656	336.364641	196.637450	-26.572896	368.743923	1008.152296	-438.287456	434.067396	951.110688	-433.041005	462.486668	969.647656	-417.079764	463.805562	866.728038	-435.679521	474.105852	754.396075	-409.551207	472.291098	740.290589	-295.506123	155.710681	574.465354	-372.689844	102.469193	620.683623	-324.736358	141.826909	426.266967	-395.127297	387.766385	687.582633	-424.477990	326.914757	632.355805	-396.639583	241.427757	609.124726	-389.360523	344.278096	614.903663	-366.112421	181.802452	349.290635	-335.859845	-203.533095	867.884491	-200.715343	-51.946391	84.120221	-409.268430	-50.236132	79.626778	-12.512818	
